<?xml version="1.0" standalone="no"?>
<!DOCTYPE svg PUBLIC "-//W3C//DTD SVG 20010904//EN"
 "http://www.w3.org/TR/2001/REC-SVG-20010904/DTD/svg10.dtd">
<svg version="1.0" xmlns="http://www.w3.org/2000/svg"
 width="100.000000pt" height="100.000000pt" viewBox="0 0 100.000000 100.000000"
 preserveAspectRatio="xMidYMid meet">

<g transform="translate(0.000000,100.000000) scale(0.100000,-0.100000)"
fill="#000000" stroke="none">
<path d="M235 898 c-44 -26 -56 -68 -33 -111 6 -12 50 -74 98 -137 48 -63 90
-120 93 -126 4 -7 -43 -78 -103 -158 -73 -97 -110 -155 -110 -172 0 -34 51
-84 85 -84 46 0 77 28 160 141 43 60 82 109 85 109 3 0 42 -52 88 -114 46 -62
95 -119 108 -125 42 -19 74 -13 106 19 45 45 35 72 -88 233 -64 84 -102 142
-98 150 4 6 47 64 94 127 99 131 110 150 110 182 -1 41 -44 78 -94 78 -36 0
-76 -38 -153 -145 -37 -52 -70 -95 -73 -95 -3 0 -36 42 -72 93 -36 50 -77 102
-91 115 -29 27 -84 37 -112 20z m86 -37 c13 -10 58 -66 99 -124 41 -59 82
-106 90 -106 8 0 49 47 90 106 80 112 111 143 143 143 27 0 57 -28 57 -54 0
-12 -50 -86 -110 -166 -62 -83 -105 -149 -101 -155 5 -5 56 -75 115 -154 114
-153 122 -174 74 -201 -25 -13 -31 -13 -55 0 -16 9 -67 68 -116 133 -48 64
-93 117 -100 117 -6 0 -46 -48 -87 -106 -79 -111 -120 -154 -149 -154 -26 0
-61 29 -61 50 0 14 122 189 221 315 4 6 -39 72 -101 155 -60 80 -110 154 -110
164 0 27 29 56 55 56 12 0 33 -8 46 -19z"/>
</g>
</svg>
